<svg id="Layer_1" enable-background="new 0 0 504.542 504.542" height="512" viewBox="0 0 504.542 504.542" width="512" xmlns="http://www.w3.org/2000/svg"><path d="m439.429 486.854-35.277-332.604c-.863-8.138-7.728-14.313-15.911-14.313h-47.613v-51.579c.001-48.721-39.637-88.358-88.357-88.358s-88.358 39.637-88.358 88.358v51.579h-47.613c-8.183 0-15.048 6.175-15.911 14.313l-35.277 332.604c-1.001 9.438 6.402 17.688 15.911 17.688h342.496c9.491 0 16.913-8.233 15.91-17.688zm-243.516-398.496c0-31.076 25.282-56.358 56.358-56.358s56.358 25.282 56.358 56.358v51.579h-112.716zm-10.103 139.706c-9.323 0-16.88-7.557-16.88-16.88s7.557-16.88 16.88-16.88 16.88 7.558 16.88 16.88-7.557 16.88-16.88 16.88zm132.921 0c-9.323 0-16.88-7.557-16.88-16.88s7.557-16.88 16.88-16.88 16.88 7.558 16.88 16.88-7.557 16.88-16.88 16.88z"/></svg>